<svg id="Layer_2" data-name="Layer 2" xmlns="http://www.w3.org/2000/svg" viewBox="0 0 148.63 54.65"><defs><style>.cls-1{fill:#21baa3;}</style></defs><title>logo</title><path class="cls-1" d="M39.88,8.68a27.81,27.81,0,0,1-3.11-.86A9.46,9.46,0,0,1,34.3,6.61l0.57-2.72H53L52.47,6.61A18.72,18.72,0,0,1,50,7.75a20.39,20.39,0,0,1-3.11.93L20.85,54l-7.15.86L5,8.68a19.45,19.45,0,0,1-2.83-.89A8.19,8.19,0,0,1,.11,6.61L0.68,3.89h23.6L23.71,6.61a21.37,21.37,0,0,1-2.93,1.18,31.5,31.5,0,0,1-3.36.89L21.5,36.86l0.21,6.72h0.14l3-6.87Z" transform="translate(-0.11 -0.17)"/><path class="cls-1" d="M49.61,22.34V19.91A25,25,0,0,1,52.47,19q1.79-.46,3.79-0.82t4-.61a27.93,27.93,0,0,1,3.47-.25L65,18.19,58.55,48.88h5v2.49a14.17,14.17,0,0,1-2.18,1.25,21.32,21.32,0,0,1-2.65,1,22.74,22.74,0,0,1-2.83.7,15.52,15.52,0,0,1-2.72.26q-2.72,0-3.76-1a3.14,3.14,0,0,1-1-2.25,17.87,17.87,0,0,1,.21-2.79q0.21-1.36.57-3L54,23.34ZM55.54,6.25a4.64,4.64,0,0,1,1.65-3.79A6.3,6.3,0,0,1,61.34,1.1a6.49,6.49,0,0,1,4.33,1.36,4.69,4.69,0,0,1,1.61,3.79A4.53,4.53,0,0,1,65.66,9.9a6.49,6.49,0,0,1-4.33,1.36A6.29,6.29,0,0,1,57.19,9.9,4.48,4.48,0,0,1,55.54,6.25Z" transform="translate(-0.11 -0.17)"/><path class="cls-1" d="M78.07,6.11l-4.86-.93V2.74a18.43,18.43,0,0,1,2.71-.86q1.71-.43,3.7-0.82t4.09-.64A33.05,33.05,0,0,1,87.59.17L89,1,79.65,48.88h5.08v2.49a9.74,9.74,0,0,1-1.92,1.17,18.05,18.05,0,0,1-2.67,1,29.11,29.11,0,0,1-3,.73,16.36,16.36,0,0,1-3,.29,5,5,0,0,1-3.52-1,3.06,3.06,0,0,1-1.1-2.25,17.87,17.87,0,0,1,.21-2.79q0.21-1.36.57-3Z" transform="translate(-0.11 -0.17)"/><path class="cls-1" d="M99.46,6.11l-4.86-.93V2.74a18.43,18.43,0,0,1,2.71-.86Q99,1.46,101,1.06t4.09-.64A33.05,33.05,0,0,1,109,.17L110.4,1,101,48.88h5.08v2.49a9.74,9.74,0,0,1-1.92,1.17,18.05,18.05,0,0,1-2.67,1,29.11,29.11,0,0,1-3,.73,16.36,16.36,0,0,1-3,.29,5,5,0,0,1-3.52-1,3.06,3.06,0,0,1-1.1-2.25,17.87,17.87,0,0,1,.21-2.79q0.21-1.36.57-3Z" transform="translate(-0.11 -0.17)"/><path class="cls-1" d="M134.15,42.58a27.45,27.45,0,0,1-2.32,4.47,21.22,21.22,0,0,1-3.18,3.9,16,16,0,0,1-3.93,2.79,10.25,10.25,0,0,1-4.65,1.07,7.26,7.26,0,0,1-5.94-2.72Q111.9,49.38,111.9,44a34.09,34.09,0,0,1,1.54-10.41,26.69,26.69,0,0,1,4.36-8.44,20.24,20.24,0,0,1,6.83-5.65,19.42,19.42,0,0,1,8.94-2,10.39,10.39,0,0,1,3.18.43q1.32,0.43,2.83,1.07a20.63,20.63,0,0,1,4-1.07,31.88,31.88,0,0,1,5.15-.36l-6,31.33h5v2.49a10.11,10.11,0,0,1-1.9,1.17,17.75,17.75,0,0,1-2.57,1,27.52,27.52,0,0,1-2.86.73,14.16,14.16,0,0,1-2.75.29,4.93,4.93,0,0,1-3.58-1.07A3.15,3.15,0,0,1,133,51.31a21.26,21.26,0,0,1,.36-3.4q0.36-2.11,1.07-5.33h-0.29Zm-8.87,6.51a4.5,4.5,0,0,0,2.83-1.22,16.56,16.56,0,0,0,2.79-3,29.88,29.88,0,0,0,2.43-4q1.11-2.18,1.9-4l2.65-14.16a6.91,6.91,0,0,0-1.61-.82,6.38,6.38,0,0,0-2-.25,7.87,7.87,0,0,0-5.15,1.9,15.61,15.61,0,0,0-3.86,4.94,27.43,27.43,0,0,0-2.4,6.83,35.64,35.64,0,0,0-.82,7.58,10.87,10.87,0,0,0,.79,4.79A2.58,2.58,0,0,0,125.28,49.09Z" transform="translate(-0.11 -0.17)"/></svg>